<svg width="24" height="24" viewBox="0 0 24 24" fill="none" xmlns="http://www.w3.org/2000/svg">
<g id="octicon:paper-airplane-24">
<path id="Vector" fill-rule="evenodd" clip-rule="evenodd" d="M1.513 1.96001C1.71484 1.78207 1.9645 1.66732 2.23097 1.62999C2.49745 1.59266 2.76903 1.63439 3.012 1.75001L22.347 10.965C22.5427 11.0581 22.708 11.2047 22.8238 11.3879C22.9395 11.5711 23.001 11.7833 23.001 12C23.001 12.2167 22.9395 12.429 22.8238 12.6122C22.708 12.7954 22.5427 12.942 22.347 13.035L3.012 22.25C2.78569 22.3578 2.53423 22.4015 2.28482 22.3766C2.03542 22.3517 1.79758 22.2591 1.59705 22.1087C1.39653 21.9583 1.24095 21.756 1.14717 21.5235C1.05339 21.2911 1.02497 21.0374 1.065 20.79L2.49 12L1.065 3.21001C1.02796 2.98078 1.04963 2.74589 1.12797 2.5273C1.20632 2.30871 1.33878 2.11354 1.513 1.96001ZM3.888 12.75L2.584 20.792L21.031 12L2.584 3.20801L3.888 11.25H11.25C11.4489 11.25 11.6397 11.329 11.7803 11.4697C11.921 11.6103 12 11.8011 12 12C12 12.1989 11.921 12.3897 11.7803 12.5303C11.6397 12.671 11.4489 12.75 11.25 12.75H3.888Z" fill="#4685FF"/>
</g>
</svg>
