<svg width="34" height="34" viewBox="0 0 34 34" fill="none" xmlns="http://www.w3.org/2000/svg">
<g id="instagram">
<path id="Vector" d="M29.6748 11.7655C29.6605 10.6925 29.4596 9.63024 29.0812 8.62614C28.753 7.77919 28.2518 7.01001 27.6095 6.36774C26.9672 5.72547 26.1981 5.22423 25.3511 4.89606C24.3599 4.52398 23.3128 4.32279 22.2543 4.30106C20.8914 4.24014 20.4594 4.22314 16.9999 4.22314C13.5404 4.22314 13.0969 4.22314 11.744 4.30106C10.686 4.32295 9.63935 4.52414 8.64861 4.89606C7.80152 5.224 7.03222 5.72516 6.38992 6.36746C5.74762 7.00976 5.24647 7.77906 4.91852 8.62614C4.5457 9.61658 4.34495 10.6635 4.32494 11.7216C4.26402 13.0858 4.24561 13.5179 4.24561 16.9774C4.24561 20.4369 4.24561 20.8789 4.32494 22.2332C4.34619 23.2929 4.54594 24.3384 4.91852 25.3315C5.24702 26.1783 5.74854 26.9473 6.39106 27.5893C7.03357 28.2314 7.80295 28.7323 8.65002 29.0601C9.63805 29.4472 10.6849 29.6628 11.7454 29.6976C13.1097 29.7586 13.5418 29.777 17.0013 29.777C20.4608 29.777 20.9042 29.777 22.2571 29.6976C23.3156 29.6768 24.3628 29.4761 25.3539 29.1041C26.2007 28.7755 26.9697 28.2741 27.6119 27.6319C28.2541 26.9897 28.7555 26.2207 29.084 25.374C29.4566 24.3823 29.6564 23.3368 29.6776 22.2757C29.7385 20.9129 29.7569 20.4808 29.7569 17.0199C29.7541 13.5604 29.7541 13.1212 29.6748 11.7655ZM16.9914 23.5196C13.3732 23.5196 10.4421 20.5885 10.4421 16.9703C10.4421 13.3521 13.3732 10.4211 16.9914 10.4211C18.7283 10.4211 20.3942 11.1111 21.6224 12.3393C22.8506 13.5675 23.5406 15.2333 23.5406 16.9703C23.5406 18.7073 22.8506 20.3731 21.6224 21.6013C20.3942 22.8296 18.7283 23.5196 16.9914 23.5196ZM23.8013 11.706C23.6007 11.7062 23.402 11.6668 23.2166 11.5901C23.0313 11.5134 22.8628 11.4009 22.721 11.2591C22.5791 11.1172 22.4667 10.9488 22.39 10.7635C22.3133 10.5781 22.2739 10.3794 22.2741 10.1788C22.2741 9.97835 22.3136 9.77986 22.3903 9.59466C22.467 9.40946 22.5795 9.24119 22.7212 9.09944C22.8629 8.9577 23.0312 8.84526 23.2164 8.76855C23.4016 8.69184 23.6001 8.65235 23.8006 8.65235C24.001 8.65235 24.1995 8.69184 24.3847 8.76855C24.5699 8.84526 24.7382 8.9577 24.8799 9.09944C25.0217 9.24119 25.1341 9.40946 25.2108 9.59466C25.2875 9.77986 25.327 9.97835 25.327 10.1788C25.327 11.0231 24.6442 11.706 23.8013 11.706Z" fill="white"/>
<path id="Vector_2" d="M16.9916 21.2246C19.3411 21.2246 21.2458 19.3199 21.2458 16.9703C21.2458 14.6208 19.3411 12.7161 16.9916 12.7161C14.642 12.7161 12.7373 14.6208 12.7373 16.9703C12.7373 19.3199 14.642 21.2246 16.9916 21.2246Z" fill="white"/>
</g>
</svg>
