<svg width="18" height="17" viewBox="0 0 18 17" fill="none" xmlns="http://www.w3.org/2000/svg">
<g id="eva:phone-fill">
<path id="Vector" d="M11.6904 15.5835C8.70521 15.5797 5.84338 14.4293 3.73252 12.3844C1.62166 10.3395 0.434076 7.56708 0.430206 4.67516C0.430206 3.811 0.784568 2.98223 1.41534 2.37117C2.0461 1.76012 2.90161 1.41683 3.79365 1.41683C3.98254 1.41544 4.17112 1.43204 4.35666 1.46641C4.53602 1.49213 4.71235 1.53483 4.88311 1.59391C5.0032 1.63473 5.11022 1.70522 5.19358 1.79839C5.27693 1.89156 5.33374 2.0042 5.35838 2.12516L6.3601 6.37516C6.3871 6.49052 6.38385 6.6106 6.35064 6.72443C6.31743 6.83826 6.25533 6.94222 6.16999 7.02683C6.07494 7.126 6.06763 7.13308 5.16827 7.58641C5.88848 9.11702 7.15211 10.3462 8.72913 11.0502C9.2044 10.1718 9.21171 10.1647 9.31408 10.0727C9.40141 9.98999 9.50873 9.92983 9.62623 9.89766C9.74373 9.86549 9.86768 9.86234 9.98676 9.8885L14.3739 10.8589C14.4947 10.8861 14.6065 10.9426 14.6986 11.0231C14.7907 11.1037 14.8601 11.2056 14.9003 11.3193C14.962 11.4875 15.0085 11.6605 15.0392 11.8364C15.0687 12.0144 15.0833 12.1945 15.0831 12.3747C15.0696 13.2352 14.7053 14.0556 14.0697 14.6567C13.434 15.2579 12.5787 15.5911 11.6904 15.5835V15.5835Z" fill="#4685FF"/>
</g>
</svg>
