<svg width="26" height="26" viewBox="0 0 26 26" fill="none" xmlns="http://www.w3.org/2000/svg">
<g id="vk" clip-path="url(#clip0_0_50)">
<path id="Vector" d="M16.9901 0H9.00893C1.72568 0 -0.00088501 1.72656 -0.00088501 9.00981V16.991C-0.00088501 24.2743 1.72568 26.0008 9.00893 26.0008H16.9901C24.2734 26.0008 25.9999 24.2743 25.9999 16.991V9.00981C25.9999 1.72656 24.2563 0 16.9901 0ZM20.9892 18.5477H19.1018C18.3868 18.5477 18.1666 17.9806 16.8804 16.6774C15.7632 15.5943 15.2684 15.4505 14.993 15.4505C14.6038 15.4505 14.4933 15.5602 14.4933 16.094V17.7994C14.4933 18.2569 14.3495 18.5315 13.1389 18.5315C11.1369 18.5315 8.91549 17.3209 7.35793 15.0654C5.00899 11.7601 4.3663 9.28444 4.3663 8.77256C4.3663 8.49712 4.47599 8.23956 5.00493 8.23956H6.89643C7.37499 8.23956 7.55699 8.45975 7.74305 8.97162C8.67824 11.6716 10.2358 14.0367 10.8785 14.0367C11.1157 14.0367 11.2254 13.9271 11.2254 13.3217V10.5332C11.1531 9.24706 10.4763 9.13656 10.4763 8.67994C10.4763 8.45975 10.6583 8.23956 10.95 8.23956H13.9246C14.3267 8.23956 14.4746 8.45975 14.4746 8.93344V12.6953C14.4746 13.1016 14.6566 13.2454 14.7663 13.2454C15.0036 13.2454 15.2067 13.1016 15.6462 12.6612C17.0047 11.1378 17.9781 8.78881 17.9781 8.78881C18.1049 8.51338 18.3251 8.25581 18.8036 8.25581H20.6951C21.2622 8.25581 21.389 8.5475 21.2622 8.95375C21.025 10.0539 18.7102 13.3209 18.7102 13.3209C18.5111 13.6508 18.4347 13.7946 18.7102 14.1627C18.9133 14.4381 19.5739 15.0093 20.0134 15.5212C20.8219 16.4393 21.4434 17.2096 21.6092 17.7426C21.7952 18.2715 21.5206 18.5469 20.9868 18.5469L20.9892 18.5477Z" fill="white"/>
</g>
<defs>
<clipPath id="clip0_0_50">
<rect width="26" height="26" fill="white"/>
</clipPath>
</defs>
</svg>
