<svg width="31" height="31" viewBox="0 0 31 31" fill="none" xmlns="http://www.w3.org/2000/svg">
<g id="whatsapp">
<path id="Vector" d="M28.4037 8.45646C28.3929 7.9023 28.3485 7.34931 28.2706 6.80054C28.1778 6.31243 28.0201 5.83892 27.8018 5.39263C27.3237 4.44881 26.5572 3.68191 25.6137 3.20325C25.1702 2.98588 24.6998 2.82863 24.2148 2.73567C23.6618 2.65621 23.1045 2.61091 22.546 2.60004C22.3096 2.591 22.0035 2.58713 21.8614 2.58713L9.14104 2.58325C8.99896 2.58325 8.69284 2.58713 8.45646 2.59617C7.9023 2.60685 7.3493 2.65128 6.80054 2.72921C6.31243 2.822 5.83892 2.97969 5.39263 3.19809C4.44886 3.67626 3.68198 4.44269 3.20325 5.38617C2.98594 5.82962 2.82869 6.30005 2.73567 6.78504C2.65585 7.33799 2.61012 7.89532 2.59875 8.45388C2.591 8.69025 2.58584 8.99638 2.58584 9.13846L2.58325 21.8588C2.58325 22.0009 2.58713 22.307 2.59617 22.5434C2.60685 23.0975 2.65128 23.6505 2.72921 24.1993C2.82202 24.6874 2.97971 25.1609 3.19809 25.6072C3.67626 26.551 4.44269 27.3179 5.38617 27.7966C5.82963 28.0139 6.30006 28.1711 6.78504 28.2642C7.338 28.3436 7.89534 28.3889 8.45388 28.3998C8.69025 28.4088 8.99638 28.4127 9.13846 28.4127L21.8588 28.4153C22.0009 28.4153 22.307 28.4114 22.5434 28.4024C23.0975 28.3917 23.6505 28.3472 24.1993 28.2693C24.6874 28.1765 25.1609 28.0188 25.6072 27.8005C26.5515 27.3225 27.3188 26.5561 27.7979 25.6124C28.0152 25.1689 28.1725 24.6985 28.2655 24.2135C28.3453 23.6606 28.391 23.1032 28.4024 22.5447C28.4101 22.3083 28.4153 22.0022 28.4153 21.8601L28.4166 9.14104C28.4166 8.99896 28.4127 8.69284 28.4037 8.45646ZM15.7802 24.486H15.7763C14.2388 24.4857 12.7259 24.1003 11.3756 23.3649L6.49313 24.6449L7.80029 19.8748C6.78821 18.1185 6.38382 16.0774 6.6498 14.068C6.91579 12.0585 7.83731 10.1929 9.27147 8.76043C10.7056 7.32797 12.5723 6.40868 14.5821 6.14508C16.5919 5.88148 18.6325 6.28831 20.3876 7.30248C22.1426 8.31665 23.5141 9.8815 24.2893 11.7544C25.0644 13.6273 25.2001 15.7037 24.6751 17.6615C24.1502 19.6194 22.994 21.3494 21.3858 22.5832C19.7776 23.8171 17.8072 24.4859 15.7802 24.486Z" fill="white"/>
<path id="Vector_2" d="M15.7842 7.62214C14.4164 7.62174 13.0735 7.98778 11.8951 8.6822C10.7168 9.37661 9.74593 10.374 9.08362 11.5708C8.42131 12.7675 8.09171 14.1198 8.12908 15.487C8.16645 16.8543 8.56944 18.1866 9.29613 19.3453L9.47825 19.6346L8.70454 22.4582L11.6018 21.6987L11.8808 21.8641C13.0602 22.5625 14.4057 22.9311 15.7764 22.931H15.7803C17.8105 22.9313 19.7578 22.1251 21.1936 20.6898C22.6295 19.2544 23.4363 17.3075 23.4366 15.2772C23.437 13.247 22.6308 11.2997 21.1954 9.86388C19.7601 8.42803 17.8131 7.62119 15.7829 7.62085L15.7842 7.62214ZM20.2843 18.5626C20.115 18.8422 19.8897 19.0837 19.6225 19.272C19.3553 19.4603 19.052 19.5912 18.7318 19.6566C18.2482 19.7395 17.752 19.7086 17.2825 19.5662C16.8373 19.4274 16.3996 19.2653 15.9715 19.0805C14.3824 18.283 13.0279 17.0861 12.0409 15.6072C11.5025 14.9226 11.1757 14.0957 11.1006 13.228C11.0944 12.8698 11.1628 12.5143 11.3016 12.184C11.4404 11.8538 11.6464 11.5561 11.9066 11.3098C11.9835 11.2221 12.0777 11.1513 12.1832 11.1017C12.2888 11.0521 12.4035 11.0249 12.5201 11.0218C12.6725 11.0218 12.8263 11.0218 12.9606 11.0296C13.1027 11.036 13.2913 10.9753 13.4773 11.4248C13.671 11.8846 14.1308 13.0174 14.1877 13.1324C14.2241 13.1927 14.245 13.2611 14.2484 13.3314C14.2518 13.4018 14.2376 13.4719 14.207 13.5354C14.1491 13.6736 14.0717 13.8028 13.9771 13.919C13.8609 14.0533 13.7356 14.2187 13.6323 14.322C13.516 14.437 13.3972 14.561 13.5302 14.7909C13.8758 15.3825 14.3071 15.9197 14.8103 16.3848C15.3562 16.8701 15.9825 17.2565 16.6612 17.5266C16.8911 17.6429 17.0255 17.6222 17.1598 17.4685C17.2941 17.3148 17.7346 16.7969 17.8883 16.5669C18.042 16.337 18.1944 16.3758 18.405 16.452C18.6155 16.5282 19.7483 17.0849 19.9782 17.2011C20.2081 17.3174 20.3618 17.3729 20.4187 17.4685C20.4817 17.8385 20.435 18.2188 20.2843 18.5626Z" fill="white"/>
</g>
</svg>
