<svg width="133" height="27" viewBox="0 0 133 27" fill="none" xmlns="http://www.w3.org/2000/svg">
<path id="logo" fill-rule="evenodd" clip-rule="evenodd" d="M0 0H29.1467V27H0V0ZM3.64334 23.2759V3.72414H25.5034V23.2759H16.8505V18.6207H12.2963V23.2759H3.64334ZM79.6654 20.6828C78.1848 20.6495 76.9975 20.1494 76.104 19.1826C75.2105 18.2158 74.7049 16.9223 74.5874 15.3021C74.5223 14.5019 74.5843 13.5618 74.7733 12.4817C74.9623 11.3948 75.2983 10.3947 75.7811 9.48128C76.2638 8.5678 76.8673 7.8077 77.5914 7.20095C78.8046 6.18081 80.2005 5.68741 81.7789 5.72074C82.7508 5.74076 83.5988 5.97082 84.3229 6.41087C85.0534 6.84427 85.6372 7.47099 86.074 8.29109C86.5112 9.1112 86.7658 10.0447 86.8373 11.0915C86.8896 11.8316 86.8441 12.675 86.7002 13.6218C86.5636 14.5619 86.3058 15.4621 85.9273 16.3222C85.5557 17.1756 85.073 17.9291 84.4796 18.5825C83.8857 19.2359 83.1844 19.756 82.3755 20.1427C81.5736 20.5227 80.67 20.7028 79.6654 20.6828ZM83.4813 11.0615C83.4162 9.3946 82.7836 8.52781 81.5831 8.46115C80.6568 8.41446 79.8903 8.79115 79.2837 9.59128C78.6771 10.3847 78.2759 11.5582 78.0805 13.1118C77.9566 14.0719 77.9106 14.8153 77.9434 15.3421C78.0085 17.0356 78.6479 17.9057 79.8612 17.9524C80.6568 17.9924 81.3417 17.7024 81.916 17.0823C82.4899 16.4555 82.9043 15.5487 83.1584 14.3619C83.413 13.1684 83.5205 12.0683 83.4813 11.0615ZM48.374 20.4828H51.72L54.1956 5.92077H42.5424L40.0768 20.4828H43.4232L45.4384 8.63116H50.3797L48.374 20.4828ZM71.0566 5.92077H67.6223L61.2332 14.912L62.7693 5.92077H59.4134L56.9377 20.4828H60.382L66.7711 11.5015L65.235 20.4828H68.591L71.0566 5.92077ZM98.3507 20.4828H101.678L104.153 5.92077H100.816L99.8381 11.7016H94.946L95.9342 5.92077H92.5783L90.1122 20.4828H93.4586L94.4956 14.4019H99.3781L98.3507 20.4828ZM116.312 14.3119H111.077L110.481 17.7824H116.674L116.214 20.4828H106.675L109.14 5.92077H118.7L118.24 8.63116H112.036L111.508 11.7016H116.752L116.312 14.3119ZM123.804 20.4828L124.646 15.5421L126.994 15.5521C128.083 15.5521 129.065 15.3621 129.939 14.982C130.82 14.602 131.527 14.0519 132.062 13.3318C132.597 12.6117 132.904 11.7616 132.982 10.7814C133.093 9.34791 132.692 8.18109 131.778 7.28097C130.872 6.38085 129.626 5.93078 128.041 5.93078L122.924 5.92077L120.458 20.4828H123.804ZM127.121 12.8517L125.106 12.8317L125.82 8.63116L128.158 8.64116C128.569 8.66784 128.899 8.80116 129.147 9.04123C129.401 9.27459 129.554 9.59464 129.606 10.0014C129.698 10.7948 129.519 11.4649 129.068 12.0116C128.618 12.5517 127.969 12.8317 127.121 12.8517Z" fill="#4685FF"/>
</svg>
